<?xml version="1.0" encoding="utf-8"?>
<!-- Generator: Adobe Illustrator 14.0.0, SVG Export Plug-In . SVG Version: 6.00 Build 43363)  -->
<!DOCTYPE svg PUBLIC "-//W3C//DTD SVG 1.1//EN" "http://www.w3.org/Graphics/SVG/1.1/DTD/svg11.dtd">
<svg version="1.1" id="Capa_1" xmlns="http://www.w3.org/2000/svg" xmlns:xlink="http://www.w3.org/1999/xlink" x="0px" y="0px"
	 width="311.333px" height="46.667px" viewBox="0 0 311.333 46.667" enable-background="new 0 0 311.333 46.667"
	 xml:space="preserve">
<g>
	<path fill="#045DA2" d="M63.374,7.247l-0.131-2.913c-0.971-0.644-1.988-1.124-3.052-1.44c-1.064-0.316-2.174-0.475-3.331-0.475
		c-2.946,0-5.305,0.895-7.078,2.684c-1.773,1.79-2.66,4.185-2.66,7.185c0,2.106,0.45,3.982,1.351,5.63
		c0.9,1.647,2.179,2.951,3.837,3.911c1.658,0.961,3.41,1.44,5.253,1.44c1.462,0,2.908-0.169,4.337-0.507
		c1.069-0.251,2.144-0.775,3.224-1.571l0.344,0.327c-0.229,0.502-0.442,1.009-0.638,1.521c-1.277,0.634-2.562,1.11-3.854,1.433
		c-1.292,0.321-2.594,0.482-3.903,0.482c-2.684,0-5.043-0.518-7.078-1.555c-2.035-1.036-3.598-2.468-4.689-4.296
		c-1.091-1.827-1.637-3.893-1.637-6.194s0.551-4.361,1.653-6.178c1.102-1.816,2.659-3.225,4.672-4.223
		c2.013-0.998,4.486-1.497,7.421-1.497c1.539,0,3.339,0.251,5.401,0.753c1.025,0.239,1.86,0.42,2.504,0.54
		c-0.491,1.167-0.775,2.814-0.851,4.942H63.374z"/>
	<path fill="#045DA2" d="M83.263,16.771h-9.467l-1.11,2.635c-0.731,1.746-1.096,2.815-1.096,3.208c0,0.251,0.068,0.431,0.205,0.54
		c0.136,0.109,0.482,0.196,1.039,0.262l1.571,0.18v1.031c-1.048-0.076-2.226-0.114-3.535-0.114c-1.571,0-2.952,0.038-4.141,0.114
		v-1.031l0.491-0.016c0.763-0.022,1.257-0.102,1.481-0.237c0.224-0.137,0.461-0.473,0.712-1.007c0.774-1.571,1.565-3.268,2.373-5.09
		l4.5-10.195c1.2-2.706,2.018-4.67,2.455-5.892h1.113l8.281,19.262c0.557,1.31,0.927,2.098,1.113,2.365s0.398,0.458,0.638,0.572
		c0.24,0.115,0.78,0.194,1.621,0.237v1.031c-1.418-0.076-2.771-0.114-4.059-0.114c-1.2,0-2.798,0.038-4.795,0.114v-1.031l1.62-0.098
		c0.578-0.044,0.922-0.104,1.031-0.181c0.164-0.119,0.245-0.272,0.245-0.458c0-0.196-0.164-0.709-0.491-1.538L83.263,16.771z
		 M74.405,15.429h8.245l-4.12-9.832L74.405,15.429z"/>
	<path fill="#045DA2" d="M99.443,3.123c-0.077,1.57-0.115,3.245-0.115,5.023v9.345c0,3.284,0.098,5.123,0.295,5.516
		c0.196,0.393,0.84,0.589,1.931,0.589h1.129v1.031c-1.931-0.076-3.453-0.114-4.566-0.114c-0.982,0-2.722,0.038-5.221,0.114v-1.031
		h1.473c0.687,0,1.129-0.084,1.326-0.253c0.196-0.17,0.321-0.513,0.376-1.031c0.054-0.519,0.114-2.104,0.18-4.755V8.817
		l-0.049-3.388c-0.022-1.407-0.172-2.269-0.45-2.585S94.795,2.37,93.715,2.37h-0.818V1.338c1.364,0.055,3.093,0.082,5.188,0.082
		c1.233,0,2.602-0.033,4.108-0.099c0.993-0.043,1.746-0.065,2.258-0.065c2.64,0,4.561,0.48,5.761,1.44
		c1.189,0.96,1.784,2.258,1.784,3.895c0,1.189-0.344,2.332-1.031,3.429c-0.688,1.097-1.661,1.978-2.921,2.644
		c-1.26,0.665-2.605,0.998-4.034,0.998c-0.655,0-1.473-0.104-2.455-0.311l-0.328-1.228c0.96,0.24,1.762,0.359,2.406,0.359
		c1.506,0,2.701-0.455,3.584-1.366c0.884-0.911,1.326-2.157,1.326-3.739c0-1.527-0.472-2.72-1.416-3.576s-2.349-1.285-4.214-1.285
		C101.854,2.516,100.698,2.718,99.443,3.123z"/>
	<path fill="#045DA2" d="M129.578,16.771h-9.467L119,19.406c-0.731,1.746-1.096,2.815-1.096,3.208c0,0.251,0.068,0.431,0.205,0.54
		c0.136,0.109,0.482,0.196,1.039,0.262l1.571,0.18v1.031c-1.048-0.076-2.226-0.114-3.535-0.114c-1.571,0-2.952,0.038-4.141,0.114
		v-1.031l0.491-0.016c0.763-0.022,1.257-0.102,1.481-0.237c0.224-0.137,0.461-0.473,0.712-1.007c0.774-1.571,1.565-3.268,2.373-5.09
		l4.5-10.195c1.2-2.706,2.018-4.67,2.455-5.892h1.113l8.281,19.262c0.557,1.31,0.927,2.098,1.113,2.365s0.398,0.458,0.638,0.572
		c0.24,0.115,0.78,0.194,1.621,0.237v1.031c-1.418-0.076-2.771-0.114-4.059-0.114c-1.2,0-2.798,0.038-4.795,0.114v-1.031l1.62-0.098
		c0.578-0.044,0.922-0.104,1.031-0.181c0.164-0.119,0.245-0.272,0.245-0.458c0-0.196-0.164-0.709-0.491-1.538L129.578,16.771z
		 M120.72,15.429h8.245l-4.12-9.832L120.72,15.429z"/>
	<path fill="#045DA2" d="M159.522,7.247l-0.131-2.913c-0.971-0.644-1.988-1.124-3.052-1.44c-1.064-0.316-2.174-0.475-3.331-0.475
		c-2.946,0-5.305,0.895-7.078,2.684c-1.773,1.79-2.66,4.185-2.66,7.185c0,2.106,0.45,3.982,1.351,5.63
		c0.9,1.647,2.179,2.951,3.837,3.911c1.658,0.961,3.41,1.44,5.253,1.44c1.462,0,2.908-0.169,4.337-0.507
		c1.069-0.251,2.144-0.775,3.224-1.571l0.344,0.327c-0.229,0.502-0.442,1.009-0.638,1.521c-1.277,0.634-2.562,1.11-3.854,1.433
		c-1.292,0.321-2.594,0.482-3.903,0.482c-2.684,0-5.043-0.518-7.078-1.555c-2.035-1.036-3.598-2.468-4.689-4.296
		c-1.091-1.827-1.637-3.893-1.637-6.194s0.551-4.361,1.653-6.178c1.102-1.816,2.659-3.225,4.672-4.223
		c2.013-0.998,4.486-1.497,7.421-1.497c1.539,0,3.339,0.251,5.401,0.753c1.025,0.239,1.86,0.42,2.504,0.54
		c-0.491,1.167-0.775,2.814-0.851,4.942H159.522z"/>
	<path fill="#045DA2" d="M163.237,23.595h1.031c1.015,0,1.623-0.245,1.825-0.736c0.202-0.491,0.303-2.842,0.303-7.054v-5.548
		c0-4.364-0.087-6.77-0.262-7.217c-0.175-0.447-0.698-0.671-1.571-0.671h-1.325V1.338c1.814,0.076,3.606,0.114,5.377,0.114
		c1.476,0,2.814-0.038,4.017-0.114V2.37h-1.267c-0.779,0-1.267,0.093-1.464,0.278c-0.198,0.186-0.313,0.654-0.346,1.407
		c-0.055,1.167-0.083,3.246-0.083,6.235v5.646c0,4.245,0.093,6.582,0.28,7.013c0.187,0.432,0.784,0.646,1.793,0.646h1.085v1.031
		c-1.344-0.076-2.809-0.114-4.394-0.114c-1.847,0-3.514,0.038-5,0.114V23.595z"/>
	<path fill="#045DA2" d="M185.527,2.828c-0.12,1.637-0.18,3.36-0.18,5.172v9.328c0,3.47,0.087,5.382,0.262,5.736
		c0.175,0.354,0.796,0.531,1.866,0.531h1.228v1.031c-1.931-0.076-3.568-0.114-4.91-0.114c-1.353,0-2.979,0.038-4.877,0.114v-1.031
		h1.375c0.72,0,1.189-0.095,1.408-0.286c0.218-0.19,0.354-0.564,0.409-1.121c0.109-1.276,0.164-2.924,0.164-4.942V7.901
		c0-1.844-0.038-3.535-0.114-5.073h-1.666c-2.688,0-4.169,0.063-4.441,0.188c-0.272,0.125-0.452,0.613-0.539,1.464l-0.229,2.193
		h-1.031l0.033-1.947c0-0.786-0.065-1.915-0.196-3.388c5.892,0.076,9.355,0.114,10.392,0.114l9.05-0.114
		c-0.207,1.844-0.327,3.622-0.36,5.335h-1.031l-0.164-2.144c-0.065-0.742-0.158-1.181-0.278-1.317
		c-0.121-0.137-0.388-0.222-0.802-0.254c-1.2-0.087-2.564-0.131-4.091-0.131H185.527z"/>
	<path fill="#045DA2" d="M211.242,16.771h-9.467l-1.11,2.635c-0.731,1.746-1.096,2.815-1.096,3.208c0,0.251,0.068,0.431,0.205,0.54
		c0.136,0.109,0.482,0.196,1.039,0.262l1.571,0.18v1.031c-1.048-0.076-2.226-0.114-3.535-0.114c-1.571,0-2.952,0.038-4.141,0.114
		v-1.031l0.491-0.016c0.763-0.022,1.257-0.102,1.481-0.237c0.224-0.137,0.461-0.473,0.712-1.007c0.774-1.571,1.565-3.268,2.373-5.09
		l4.5-10.195c1.2-2.706,2.018-4.67,2.455-5.892h1.113l8.281,19.262c0.557,1.31,0.927,2.098,1.113,2.365s0.398,0.458,0.638,0.572
		c0.24,0.115,0.78,0.194,1.621,0.237v1.031c-1.418-0.076-2.771-0.114-4.059-0.114c-1.2,0-2.798,0.038-4.795,0.114v-1.031l1.62-0.098
		c0.578-0.044,0.922-0.104,1.031-0.181c0.164-0.119,0.245-0.272,0.245-0.458c0-0.196-0.164-0.709-0.491-1.538L211.242,16.771z
		 M202.384,15.429h8.245l-4.12-9.832L202.384,15.429z"/>
	<path fill="#045DA2" d="M241.186,7.247l-0.131-2.913c-0.971-0.644-1.988-1.124-3.052-1.44c-1.064-0.316-2.174-0.475-3.331-0.475
		c-2.946,0-5.305,0.895-7.078,2.684c-1.773,1.79-2.66,4.185-2.66,7.185c0,2.106,0.45,3.982,1.351,5.63
		c0.9,1.647,2.179,2.951,3.837,3.911c1.658,0.961,3.41,1.44,5.253,1.44c1.462,0,2.908-0.169,4.337-0.507
		c1.069-0.251,2.144-0.775,3.224-1.571l0.344,0.327c-0.229,0.502-0.442,1.009-0.638,1.521c-1.277,0.634-2.562,1.11-3.854,1.433
		c-1.292,0.321-2.594,0.482-3.903,0.482c-2.684,0-5.043-0.518-7.078-1.555c-2.035-1.036-3.598-2.468-4.689-4.296
		c-1.091-1.827-1.637-3.893-1.637-6.194s0.551-4.361,1.653-6.178c1.102-1.816,2.659-3.225,4.672-4.223
		c2.013-0.998,4.486-1.497,7.421-1.497c1.539,0,3.339,0.251,5.401,0.753c1.025,0.239,1.86,0.42,2.504,0.54
		c-0.491,1.167-0.775,2.814-0.851,4.942H241.186z"/>
	<path fill="#045DA2" d="M244.901,23.595h1.031c1.015,0,1.623-0.245,1.825-0.736c0.202-0.491,0.303-2.842,0.303-7.054v-5.548
		c0-4.364-0.087-6.77-0.262-7.217c-0.175-0.447-0.698-0.671-1.571-0.671h-1.325V1.338c1.814,0.076,3.606,0.114,5.377,0.114
		c1.476,0,2.814-0.038,4.017-0.114V2.37h-1.267c-0.779,0-1.267,0.093-1.464,0.278c-0.198,0.186-0.313,0.654-0.346,1.407
		c-0.055,1.167-0.083,3.246-0.083,6.235v5.646c0,4.245,0.093,6.582,0.28,7.013c0.187,0.432,0.784,0.646,1.793,0.646h1.085v1.031
		c-1.344-0.076-2.809-0.114-4.394-0.114c-1.847,0-3.514,0.038-5,0.114V23.595z"/>
	<path fill="#045DA2" d="M255.948,12.974c0-3.589,1.157-6.48,3.472-8.674c2.314-2.192,5.398-3.289,9.253-3.289
		c3.777,0,6.738,1.018,8.884,3.052c2.146,2.035,3.218,4.738,3.218,8.109c0,3.633-1.245,6.672-3.734,9.115
		c-2.489,2.444-5.628,3.666-9.417,3.666c-2.369,0-4.411-0.479-6.125-1.44c-1.714-0.959-3.068-2.361-4.061-4.205
		C256.444,17.464,255.948,15.353,255.948,12.974z M259.27,11.632c0,2.466,0.423,4.612,1.269,6.439
		c0.847,1.828,1.979,3.197,3.399,4.108c1.42,0.911,3.042,1.366,4.865,1.366c1.693,0,3.172-0.387,4.439-1.162
		c1.267-0.774,2.263-1.931,2.99-3.47c0.726-1.538,1.089-3.409,1.089-5.613c0-2.313-0.402-4.29-1.204-5.933
		c-0.803-1.642-1.903-2.877-3.301-3.706c-1.397-0.829-3.052-1.244-4.963-1.244c-1.747,0-3.254,0.365-4.521,1.097
		c-1.267,0.73-2.26,1.803-2.981,3.216S259.27,9.778,259.27,11.632z"/>
	<path fill="#045DA2" d="M286.944,5.031v11.313c0,2.576,0.049,4.371,0.148,5.386c0.077,0.775,0.205,1.247,0.386,1.416
		c0.181,0.17,0.705,0.292,1.571,0.368l1.053,0.082v1.031c-1.192-0.076-2.269-0.114-3.23-0.114c-0.667,0-2.198,0.038-4.592,0.114
		v-1.031h1.178c0.709,0,1.173-0.098,1.391-0.294s0.354-0.584,0.409-1.162c0.12-1.2,0.18-2.831,0.18-4.894V9.112
		c0-1.527-0.017-3.038-0.049-4.533c-0.022-0.633-0.106-1.066-0.253-1.301s-0.363-0.444-0.646-0.63s-0.682-0.278-1.195-0.278h-1.015
		V1.338c1.386,0.076,2.444,0.114,3.175,0.114c0.785,0,1.647-0.038,2.585-0.114c1.08,1.32,2.098,2.604,3.052,3.854
		c0.955,1.25,1.945,2.507,2.97,3.772l5.597,6.874c2.019,2.466,3.475,4.179,4.37,5.139V10.47c0-4.396-0.079-6.8-0.237-7.209
		s-0.789-0.668-1.89-0.777l-1.228-0.114V1.338c1.756,0.076,3.12,0.114,4.091,0.114c1.015,0,2.324-0.038,3.928-0.114V2.37h-1.26
		c-1.015,0-1.599,0.338-1.751,1.015c-0.099,0.447-0.147,2.837-0.147,7.168v7.381c0,1.985,0.087,4.358,0.262,7.119
		c-1.484-0.229-2.346-0.396-2.586-0.499c-0.24-0.104-0.469-0.275-0.688-0.516c-1.211-1.343-2.482-2.832-3.813-4.47L286.944,5.031z"
		/>
</g>
<g>
	<path fill="#2A92CC" d="M8.042,36.957c-0.036-0.657-0.179-1.172-0.425-1.546c-0.246-0.372-0.563-0.559-0.952-0.559
		c-0.519,0-0.913,0.289-1.184,0.866c-0.271,0.579-0.407,1.42-0.407,2.524c0,1.11,0.134,1.945,0.4,2.504
		c0.267,0.559,0.664,0.839,1.19,0.839c0.381,0,0.691-0.167,0.933-0.503c0.241-0.336,0.403-0.828,0.49-1.476l1.696,0.217
		c-0.135,1.138-0.475,2.018-1.022,2.643s-1.252,0.938-2.118,0.938c-1.072,0-1.922-0.464-2.55-1.392
		c-0.63-0.928-0.944-2.184-0.944-3.77c0-1.574,0.317-2.831,0.951-3.765c0.635-0.935,1.485-1.402,2.554-1.402
		c0.884,0,1.601,0.323,2.147,0.969c0.545,0.646,0.874,1.553,0.981,2.723L8.042,36.957z"/>
	<path fill="#2A92CC" d="M13.368,43.417c-0.889,0-1.606-0.356-2.153-1.069c-0.547-0.714-0.82-1.65-0.82-2.812
		c0-1.166,0.273-2.103,0.817-2.814c0.545-0.711,1.264-1.066,2.156-1.066c0.895,0,1.615,0.355,2.16,1.066
		c0.545,0.711,0.817,1.649,0.817,2.814c0,1.166-0.272,2.104-0.817,2.815C14.982,43.062,14.262,43.417,13.368,43.417z M13.368,41.928
		c0.372,0,0.658-0.205,0.853-0.615c0.197-0.41,0.294-1.002,0.294-1.776c0-0.778-0.099-1.374-0.297-1.787
		c-0.198-0.411-0.482-0.617-0.851-0.617c-0.374,0-0.657,0.202-0.849,0.607c-0.193,0.405-0.288,1.005-0.288,1.797
		c0,0.788,0.095,1.383,0.286,1.787C12.706,41.727,12.99,41.928,13.368,41.928z"/>
	<path fill="#2A92CC" d="M17.325,43.215v-7.363h1.579v1.175c0.19-0.448,0.435-0.788,0.734-1.021
		c0.298-0.233,0.643-0.349,1.035-0.349c0.649,0,1.13,0.227,1.444,0.681c0.314,0.455,0.471,1.157,0.471,2.108v4.769h-1.708v-4.629
		c0-0.452-0.067-0.793-0.201-1.024c-0.134-0.231-0.337-0.347-0.605-0.347c-0.313,0-0.566,0.151-0.761,0.455
		c-0.194,0.303-0.292,0.703-0.292,1.202v4.342H17.325z"/>
	<path fill="#2A92CC" d="M23.365,41.152l1.434-0.244c0.075,0.341,0.236,0.602,0.484,0.786s0.564,0.276,0.948,0.276
		c0.311,0,0.558-0.073,0.742-0.22c0.185-0.146,0.277-0.342,0.277-0.583c0-0.354-0.326-0.602-0.979-0.742
		c-0.194-0.042-0.345-0.077-0.454-0.104c-0.794-0.192-1.36-0.464-1.697-0.819c-0.336-0.354-0.503-0.839-0.503-1.454
		c0-0.718,0.229-1.299,0.686-1.74c0.457-0.443,1.061-0.666,1.81-0.666c0.635,0,1.164,0.163,1.587,0.487
		c0.424,0.324,0.729,0.8,0.916,1.43l-1.388,0.315c-0.101-0.285-0.247-0.495-0.437-0.63s-0.438-0.203-0.745-0.203
		c-0.287,0-0.506,0.063-0.658,0.189c-0.151,0.125-0.228,0.308-0.228,0.545c0,0.344,0.37,0.598,1.11,0.762
		c0.252,0.056,0.453,0.103,0.598,0.139c0.724,0.182,1.238,0.444,1.543,0.787c0.304,0.343,0.455,0.814,0.455,1.416
		c0,0.751-0.252,1.354-0.758,1.811c-0.505,0.458-1.182,0.686-2.029,0.686c-0.706,0-1.299-0.198-1.781-0.591
		C23.819,42.391,23.506,41.846,23.365,41.152z"/>
	<path fill="#2A92CC" d="M35.412,40.964c-0.194,0.783-0.543,1.388-1.048,1.814c-0.507,0.426-1.123,0.64-1.851,0.64
		c-0.915,0-1.652-0.354-2.212-1.063c-0.56-0.708-0.84-1.643-0.84-2.804c0-1.137,0.293-2.07,0.879-2.8
		c0.586-0.729,1.336-1.094,2.251-1.094c0.889,0,1.585,0.35,2.093,1.052s0.762,1.667,0.762,2.898v0.301h-4.148
		c0,0.639,0.111,1.131,0.333,1.475c0.221,0.346,0.539,0.518,0.949,0.518c0.291,0,0.54-0.096,0.745-0.29
		c0.205-0.193,0.347-0.465,0.425-0.814L35.412,40.964z M31.32,38.705l2.34-0.006c-0.008-0.527-0.112-0.933-0.314-1.217
		c-0.202-0.284-0.487-0.426-0.857-0.426c-0.347,0-0.623,0.146-0.828,0.437C31.457,37.783,31.342,38.187,31.32,38.705z"/>
	<path fill="#2A92CC" d="M36.493,35.852h1.753v7.335c0,0.969-0.16,1.675-0.479,2.115c-0.32,0.44-0.828,0.66-1.526,0.66
		c-0.142,0-0.303-0.01-0.484-0.031c-0.181-0.021-0.377-0.053-0.59-0.094l-0.006-1.574c0.146,0.023,0.263,0.042,0.351,0.053
		c0.086,0.012,0.158,0.017,0.215,0.017c0.292,0,0.492-0.085,0.602-0.257c0.11-0.174,0.165-0.541,0.165-1.105V35.852z M36.493,33.278
		h1.753v1.629h-1.753V33.278z"/>
	<path fill="#2A92CC" d="M42.193,43.417c-0.889,0-1.606-0.356-2.153-1.069c-0.547-0.714-0.82-1.65-0.82-2.812
		c0-1.166,0.273-2.103,0.818-2.814c0.544-0.711,1.263-1.066,2.155-1.066c0.895,0,1.615,0.355,2.161,1.066
		c0.544,0.711,0.816,1.649,0.816,2.814c0,1.166-0.272,2.104-0.816,2.815C43.808,43.062,43.088,43.417,42.193,43.417z M42.193,41.928
		c0.373,0,0.658-0.205,0.854-0.615c0.196-0.41,0.294-1.002,0.294-1.776c0-0.778-0.099-1.374-0.296-1.787
		c-0.198-0.411-0.482-0.617-0.851-0.617c-0.373,0-0.656,0.202-0.848,0.607c-0.193,0.405-0.288,1.005-0.288,1.797
		c0,0.788,0.095,1.383,0.286,1.787C41.532,41.727,41.816,41.928,42.193,41.928z"/>
	<path fill="#2A92CC" d="M49.738,43.215v-9.937h3.119c1.015,0,1.782,0.262,2.304,0.788c0.52,0.523,0.781,1.296,0.781,2.318
		c0,0.908-0.26,1.644-0.779,2.206s-1.204,0.843-2.054,0.843h-1.512v3.783H49.738z M51.597,37.748h1.007
		c0.441,0,0.776-0.119,1.008-0.354c0.23-0.234,0.347-0.576,0.347-1.024c0-0.415-0.108-0.74-0.327-0.975
		c-0.219-0.236-0.518-0.353-0.898-0.353h-1.137V37.748z"/>
	<path fill="#2A92CC" d="M56.771,43.215v-7.363h1.522v1.553c0.134-0.597,0.334-1.038,0.602-1.322
		c0.267-0.285,0.609-0.426,1.027-0.426c0.037,0,0.11,0.005,0.218,0.013c0.034,0.005,0.06,0.01,0.079,0.015v1.986
		c-0.009,0-0.017,0-0.028,0c-0.15-0.02-0.257-0.028-0.324-0.028c-0.438,0-0.778,0.174-1.022,0.521
		c-0.246,0.348-0.368,0.829-0.368,1.444v3.608H56.771z"/>
	<path fill="#2A92CC" d="M63.618,43.417c-0.889,0-1.606-0.356-2.153-1.069c-0.547-0.714-0.82-1.65-0.82-2.812
		c0-1.166,0.273-2.103,0.818-2.814c0.544-0.711,1.263-1.066,2.156-1.066c0.895,0,1.615,0.355,2.161,1.066
		c0.544,0.711,0.817,1.649,0.817,2.814c0,1.166-0.272,2.104-0.817,2.815C65.233,43.062,64.512,43.417,63.618,43.417z M63.618,41.928
		c0.372,0,0.658-0.205,0.854-0.615c0.196-0.41,0.294-1.002,0.294-1.776c0-0.778-0.099-1.374-0.297-1.787
		c-0.197-0.411-0.482-0.617-0.851-0.617c-0.374,0-0.657,0.202-0.849,0.607c-0.192,0.405-0.288,1.005-0.288,1.797
		c0,0.788,0.096,1.383,0.286,1.787C62.956,41.727,63.241,41.928,63.618,41.928z"/>
	<path fill="#2A92CC" d="M67.849,43.215v-5.929h-0.929v-1.434h0.929v-0.259c0-0.843,0.165-1.468,0.493-1.877
		c0.329-0.408,0.833-0.611,1.511-0.611c0.235,0,0.468,0.015,0.697,0.042c0.229,0.027,0.456,0.072,0.68,0.132v1.448
		c-0.227-0.042-0.409-0.069-0.546-0.084c-0.135-0.014-0.26-0.021-0.372-0.021c-0.283,0-0.496,0.085-0.635,0.255
		c-0.141,0.171-0.21,0.431-0.21,0.78c0,0.013,0.001,0.044,0.005,0.09c0.004,0.048,0.006,0.082,0.006,0.105h1.466v1.434h-1.433v5.929
		H67.849z"/>
	<path fill="#2A92CC" d="M77.192,40.964c-0.194,0.783-0.543,1.388-1.049,1.814c-0.506,0.426-1.123,0.64-1.851,0.64
		c-0.914,0-1.651-0.354-2.212-1.063c-0.559-0.708-0.84-1.643-0.84-2.804c0-1.137,0.293-2.07,0.879-2.8
		c0.586-0.729,1.337-1.094,2.251-1.094c0.889,0,1.586,0.35,2.094,1.052s0.762,1.667,0.762,2.898v0.301h-4.148
		c0,0.639,0.111,1.131,0.333,1.475c0.221,0.346,0.538,0.518,0.948,0.518c0.291,0,0.54-0.096,0.745-0.29
		c0.205-0.193,0.347-0.465,0.425-0.814L77.192,40.964z M73.1,38.705l2.34-0.006c-0.007-0.527-0.112-0.933-0.313-1.217
		c-0.201-0.284-0.487-0.426-0.857-0.426c-0.347,0-0.623,0.146-0.828,0.437C73.237,37.783,73.122,38.187,73.1,38.705z"/>
	<path fill="#2A92CC" d="M77.746,41.152l1.433-0.244c0.076,0.341,0.237,0.602,0.484,0.786c0.248,0.185,0.564,0.276,0.949,0.276
		c0.31,0,0.558-0.073,0.742-0.22s0.277-0.342,0.277-0.583c0-0.354-0.326-0.602-0.979-0.742c-0.194-0.042-0.346-0.077-0.454-0.104
		c-0.795-0.192-1.36-0.464-1.697-0.819c-0.335-0.354-0.503-0.839-0.503-1.454c0-0.718,0.229-1.299,0.687-1.74
		c0.456-0.443,1.061-0.666,1.81-0.666c0.635,0,1.164,0.163,1.587,0.487c0.423,0.324,0.729,0.8,0.916,1.43l-1.388,0.315
		c-0.102-0.285-0.247-0.495-0.438-0.63s-0.438-0.203-0.744-0.203c-0.287,0-0.507,0.063-0.658,0.189
		c-0.151,0.125-0.227,0.308-0.227,0.545c0,0.344,0.37,0.598,1.11,0.762c0.252,0.056,0.453,0.103,0.598,0.139
		c0.724,0.182,1.238,0.444,1.543,0.787c0.304,0.343,0.456,0.814,0.456,1.416c0,0.751-0.252,1.354-0.758,1.811
		c-0.505,0.458-1.182,0.686-2.028,0.686c-0.706,0-1.299-0.198-1.781-0.591C78.2,42.391,77.888,41.846,77.746,41.152z"/>
	<path fill="#2A92CC" d="M84.167,34.908v-1.629h1.764v1.629H84.167z M84.167,43.215v-7.363h1.764v7.363H84.167z"/>
	<path fill="#2A92CC" d="M89.868,43.417c-0.889,0-1.606-0.356-2.153-1.069c-0.547-0.714-0.82-1.65-0.82-2.812
		c0-1.166,0.273-2.103,0.818-2.814c0.544-0.711,1.263-1.066,2.156-1.066c0.895,0,1.615,0.355,2.161,1.066
		c0.544,0.711,0.817,1.649,0.817,2.814c0,1.166-0.272,2.104-0.817,2.815C91.483,43.062,90.762,43.417,89.868,43.417z M89.868,41.928
		c0.372,0,0.658-0.205,0.854-0.615c0.196-0.41,0.294-1.002,0.294-1.776c0-0.778-0.099-1.374-0.297-1.787
		c-0.197-0.411-0.482-0.617-0.851-0.617c-0.374,0-0.657,0.202-0.849,0.607c-0.192,0.405-0.288,1.005-0.288,1.797
		c0,0.788,0.096,1.383,0.286,1.787C89.206,41.727,89.491,41.928,89.868,41.928z"/>
	<path fill="#2A92CC" d="M93.825,43.215v-7.363h1.579v1.175c0.19-0.448,0.435-0.788,0.733-1.021
		c0.298-0.233,0.644-0.349,1.035-0.349c0.649,0,1.13,0.227,1.444,0.681c0.313,0.455,0.471,1.157,0.471,2.108v4.769H97.38v-4.629
		c0-0.452-0.067-0.793-0.202-1.024c-0.134-0.231-0.337-0.347-0.605-0.347c-0.313,0-0.566,0.151-0.76,0.455
		c-0.194,0.303-0.292,0.703-0.292,1.202v4.342H93.825z"/>
	<path fill="#2A92CC" d="M104.121,43.215c-0.034-0.164-0.06-0.342-0.078-0.535c-0.02-0.194-0.032-0.409-0.04-0.647
		c-0.202,0.443-0.468,0.783-0.8,1.017c-0.332,0.235-0.715,0.354-1.147,0.354c-0.635,0-1.138-0.202-1.509-0.609
		c-0.372-0.405-0.558-0.954-0.558-1.643c0-0.872,0.335-1.532,1.004-1.982c0.67-0.449,1.663-0.681,2.976-0.696V38.16
		c0-0.373-0.083-0.655-0.249-0.847c-0.166-0.19-0.411-0.286-0.736-0.286c-0.358,0-0.641,0.087-0.848,0.262
		c-0.208,0.176-0.333,0.433-0.378,0.772l-1.606-0.216c0.138-0.723,0.453-1.269,0.943-1.637c0.491-0.368,1.15-0.552,1.979-0.552
		c0.918,0,1.579,0.223,1.979,0.671c0.401,0.447,0.602,1.182,0.602,2.202v3.266c0,0.327,0.015,0.605,0.043,0.836
		c0.028,0.23,0.072,0.425,0.132,0.583H104.121z M103.969,39.606c-0.702,0.015-1.238,0.143-1.61,0.384
		c-0.371,0.243-0.557,0.589-0.557,1.035c0,0.303,0.078,0.539,0.236,0.707c0.156,0.167,0.377,0.251,0.661,0.251
		c0.361,0,0.664-0.163,0.907-0.486c0.243-0.325,0.364-0.736,0.364-1.234V39.606z"/>
	<path fill="#2A92CC" d="M106.879,43.215v-9.937h1.764v9.937H106.879z"/>
	<path fill="#2A92CC" d="M118.715,33.278v9.937h-1.606l-0.012-1.133c-0.194,0.433-0.427,0.762-0.7,0.986
		c-0.272,0.223-0.578,0.335-0.918,0.335c-0.72,0-1.292-0.345-1.716-1.035c-0.424-0.689-0.635-1.625-0.635-2.804
		s0.213-2.123,0.641-2.832c0.427-0.708,0.99-1.063,1.688-1.063c0.309,0,0.592,0.084,0.848,0.253c0.255,0.167,0.49,0.421,0.702,0.762
		v-3.406H118.715z M117.007,38.635c0-0.466-0.089-0.827-0.266-1.081c-0.177-0.254-0.43-0.381-0.758-0.381
		c-0.332,0-0.587,0.202-0.764,0.604c-0.177,0.404-0.266,0.985-0.266,1.746c0,0.774,0.088,1.355,0.264,1.745
		c0.174,0.389,0.439,0.583,0.794,0.583c0.283,0,0.521-0.142,0.711-0.426s0.285-0.648,0.285-1.091V38.635z"/>
	<path fill="#2A92CC" d="M125.589,40.964c-0.194,0.783-0.543,1.388-1.049,1.814c-0.507,0.426-1.123,0.64-1.851,0.64
		c-0.914,0-1.651-0.354-2.212-1.063c-0.559-0.708-0.84-1.643-0.84-2.804c0-1.137,0.293-2.07,0.879-2.8
		c0.586-0.729,1.337-1.094,2.251-1.094c0.889,0,1.586,0.35,2.094,1.052s0.762,1.667,0.762,2.898v0.301h-4.148
		c0,0.639,0.111,1.131,0.333,1.475c0.221,0.346,0.539,0.518,0.949,0.518c0.29,0,0.539-0.096,0.744-0.29
		c0.205-0.193,0.347-0.465,0.425-0.814L125.589,40.964z M121.498,38.705l2.34-0.006c-0.007-0.527-0.112-0.933-0.313-1.217
		c-0.202-0.284-0.487-0.426-0.857-0.426c-0.347,0-0.622,0.146-0.827,0.437C121.634,37.783,121.519,38.187,121.498,38.705z"/>
	<path fill="#2A92CC" d="M134.72,36.957c-0.037-0.657-0.18-1.172-0.425-1.546c-0.247-0.372-0.564-0.559-0.952-0.559
		c-0.519,0-0.913,0.289-1.185,0.866c-0.271,0.579-0.406,1.42-0.406,2.524c0,1.11,0.134,1.945,0.4,2.504
		c0.268,0.559,0.664,0.839,1.19,0.839c0.381,0,0.69-0.167,0.933-0.503c0.24-0.336,0.402-0.828,0.489-1.476l1.695,0.217
		c-0.134,1.138-0.475,2.018-1.021,2.643s-1.252,0.938-2.118,0.938c-1.071,0-1.921-0.464-2.55-1.392
		c-0.63-0.928-0.943-2.184-0.943-3.77c0-1.574,0.317-2.831,0.951-3.765c0.635-0.935,1.486-1.402,2.554-1.402
		c0.884,0,1.6,0.323,2.147,0.969c0.546,0.646,0.874,1.553,0.981,2.723L134.72,36.957z"/>
	<path fill="#2A92CC" d="M137.396,34.908v-1.629h1.764v1.629H137.396z M137.396,43.215v-7.363h1.764v7.363H137.396z"/>
	<path fill="#2A92CC" d="M146.073,40.964c-0.194,0.783-0.543,1.388-1.049,1.814c-0.507,0.426-1.123,0.64-1.851,0.64
		c-0.914,0-1.651-0.354-2.212-1.063c-0.559-0.708-0.84-1.643-0.84-2.804c0-1.137,0.293-2.07,0.879-2.8
		c0.586-0.729,1.337-1.094,2.251-1.094c0.889,0,1.586,0.35,2.094,1.052s0.762,1.667,0.762,2.898v0.301h-4.148
		c0,0.639,0.111,1.131,0.333,1.475c0.221,0.346,0.539,0.518,0.949,0.518c0.29,0,0.539-0.096,0.744-0.29
		c0.205-0.193,0.347-0.465,0.425-0.814L146.073,40.964z M141.981,38.705l2.34-0.006c-0.007-0.527-0.112-0.933-0.313-1.217
		c-0.202-0.284-0.487-0.426-0.857-0.426c-0.347,0-0.622,0.146-0.827,0.437C142.118,37.783,142.002,38.187,141.981,38.705z"/>
	<path fill="#2A92CC" d="M147.098,43.215v-7.363h1.578v1.175c0.19-0.448,0.435-0.788,0.733-1.021
		c0.298-0.233,0.644-0.349,1.035-0.349c0.649,0,1.131,0.227,1.444,0.681c0.313,0.455,0.471,1.157,0.471,2.108v4.769h-1.708v-4.629
		c0-0.452-0.067-0.793-0.202-1.024c-0.134-0.231-0.337-0.347-0.605-0.347c-0.313,0-0.566,0.151-0.76,0.455
		c-0.194,0.303-0.292,0.703-0.292,1.202v4.342H147.098z"/>
	<path fill="#2A92CC" d="M157.164,38.649c-0.052-0.476-0.163-0.846-0.333-1.108c-0.17-0.264-0.38-0.396-0.63-0.396
		c-0.359,0-0.63,0.2-0.814,0.602c-0.186,0.4-0.277,0.992-0.277,1.776c0,0.769,0.094,1.36,0.282,1.772
		c0.189,0.413,0.459,0.619,0.81,0.619c0.276,0,0.504-0.134,0.686-0.402c0.181-0.268,0.292-0.635,0.333-1.102l1.5,0.21
		c-0.079,0.854-0.355,1.532-0.829,2.039c-0.474,0.505-1.069,0.758-1.786,0.758c-0.836,0-1.517-0.359-2.043-1.077
		s-0.79-1.648-0.79-2.791c0-1.174,0.271-2.117,0.812-2.828c0.542-0.711,1.258-1.066,2.15-1.066c0.68,0,1.239,0.247,1.68,0.741
		c0.44,0.495,0.709,1.177,0.807,2.049L157.164,38.649z"/>
	<path fill="#2A92CC" d="M159.615,34.908v-1.629h1.764v1.629H159.615z M159.615,43.215v-7.363h1.764v7.363H159.615z"/>
	<path fill="#2A92CC" d="M166.462,43.215c-0.034-0.164-0.06-0.342-0.078-0.535c-0.02-0.194-0.032-0.409-0.041-0.647
		c-0.201,0.443-0.467,0.783-0.799,1.017c-0.332,0.235-0.715,0.354-1.147,0.354c-0.635,0-1.138-0.202-1.509-0.609
		c-0.373-0.405-0.558-0.954-0.558-1.643c0-0.872,0.336-1.532,1.005-1.982c0.67-0.449,1.663-0.681,2.976-0.696V38.16
		c0-0.373-0.083-0.655-0.249-0.847c-0.166-0.19-0.412-0.286-0.736-0.286c-0.359,0-0.641,0.087-0.849,0.262
		c-0.208,0.176-0.333,0.433-0.378,0.772l-1.606-0.216c0.138-0.723,0.453-1.269,0.944-1.637c0.49-0.368,1.149-0.552,1.979-0.552
		c0.918,0,1.578,0.223,1.979,0.671c0.402,0.447,0.602,1.182,0.602,2.202v3.266c0,0.327,0.015,0.605,0.042,0.836
		c0.028,0.23,0.072,0.425,0.132,0.583H166.462z M166.311,39.606c-0.702,0.015-1.238,0.143-1.61,0.384
		c-0.371,0.243-0.557,0.589-0.557,1.035c0,0.303,0.078,0.539,0.235,0.707c0.156,0.167,0.377,0.251,0.66,0.251
		c0.361,0,0.664-0.163,0.907-0.486c0.243-0.325,0.364-0.736,0.364-1.234V39.606z"/>
	<path fill="#2A92CC" d="M168.763,41.152l1.433-0.244c0.076,0.341,0.237,0.602,0.485,0.786s0.564,0.276,0.949,0.276
		c0.31,0,0.558-0.073,0.742-0.22c0.184-0.146,0.277-0.342,0.277-0.583c0-0.354-0.326-0.602-0.979-0.742
		c-0.194-0.042-0.346-0.077-0.454-0.104c-0.795-0.192-1.36-0.464-1.697-0.819c-0.335-0.354-0.503-0.839-0.503-1.454
		c0-0.718,0.228-1.299,0.686-1.74c0.457-0.443,1.061-0.666,1.811-0.666c0.635,0,1.163,0.163,1.587,0.487
		c0.423,0.324,0.729,0.8,0.915,1.43l-1.388,0.315c-0.102-0.285-0.247-0.495-0.437-0.63s-0.438-0.203-0.745-0.203
		c-0.287,0-0.507,0.063-0.658,0.189c-0.151,0.125-0.227,0.308-0.227,0.545c0,0.344,0.37,0.598,1.109,0.762
		c0.253,0.056,0.453,0.103,0.598,0.139c0.724,0.182,1.238,0.444,1.543,0.787c0.304,0.343,0.456,0.814,0.456,1.416
		c0,0.751-0.253,1.354-0.758,1.811c-0.505,0.458-1.182,0.686-2.029,0.686c-0.706,0-1.299-0.198-1.781-0.591
		C169.217,42.391,168.905,41.846,168.763,41.152z"/>
	<path fill="#2A92CC" d="M178.784,43.215v-9.937h5.632v1.791h-3.84v2.161h3.096v1.677h-3.096v2.49h3.896v1.818H178.784z"/>
	<path fill="#2A92CC" d="M189.012,38.649c-0.053-0.476-0.164-0.846-0.333-1.108c-0.169-0.264-0.379-0.396-0.63-0.396
		c-0.359,0-0.63,0.2-0.814,0.602c-0.186,0.4-0.277,0.992-0.277,1.776c0,0.769,0.094,1.36,0.282,1.772
		c0.189,0.413,0.459,0.619,0.809,0.619c0.276,0,0.504-0.134,0.686-0.402c0.181-0.268,0.292-0.635,0.333-1.102l1.5,0.21
		c-0.08,0.854-0.355,1.532-0.829,2.039c-0.474,0.505-1.069,0.758-1.786,0.758c-0.836,0-1.518-0.359-2.043-1.077
		s-0.79-1.648-0.79-2.791c0-1.174,0.271-2.117,0.812-2.828c0.542-0.711,1.259-1.066,2.149-1.066c0.68,0,1.239,0.247,1.68,0.741
		c0.441,0.495,0.709,1.177,0.807,2.049L189.012,38.649z"/>
	<path fill="#2A92CC" d="M194.112,43.417c-0.889,0-1.606-0.356-2.153-1.069c-0.547-0.714-0.82-1.65-0.82-2.812
		c0-1.166,0.273-2.103,0.818-2.814c0.544-0.711,1.263-1.066,2.155-1.066c0.895,0,1.615,0.355,2.161,1.066
		c0.544,0.711,0.816,1.649,0.816,2.814c0,1.166-0.272,2.104-0.816,2.815C195.727,43.062,195.007,43.417,194.112,43.417z
		 M194.112,41.928c0.373,0,0.658-0.205,0.854-0.615c0.196-0.41,0.294-1.002,0.294-1.776c0-0.778-0.099-1.374-0.296-1.787
		c-0.198-0.411-0.482-0.617-0.851-0.617c-0.373,0-0.656,0.202-0.848,0.607c-0.193,0.405-0.288,1.005-0.288,1.797
		c0,0.788,0.095,1.383,0.286,1.787C193.451,41.727,193.735,41.928,194.112,41.928z"/>
	<path fill="#2A92CC" d="M198.071,43.215v-7.363h1.578v1.175c0.19-0.448,0.435-0.788,0.734-1.021
		c0.298-0.233,0.643-0.349,1.035-0.349c0.649,0,1.13,0.227,1.444,0.681c0.314,0.455,0.472,1.157,0.472,2.108v4.769h-1.708v-4.629
		c0-0.452-0.067-0.793-0.201-1.024c-0.135-0.231-0.337-0.347-0.605-0.347c-0.313,0-0.566,0.151-0.761,0.455
		c-0.194,0.303-0.292,0.703-0.292,1.202v4.342H198.071z"/>
	<path fill="#2A92CC" d="M207.217,43.417c-0.889,0-1.606-0.356-2.153-1.069c-0.547-0.714-0.82-1.65-0.82-2.812
		c0-1.166,0.273-2.103,0.818-2.814c0.544-0.711,1.263-1.066,2.155-1.066c0.895,0,1.615,0.355,2.161,1.066
		c0.544,0.711,0.816,1.649,0.816,2.814c0,1.166-0.272,2.104-0.816,2.815C208.833,43.062,208.112,43.417,207.217,43.417z
		 M207.217,41.928c0.373,0,0.658-0.205,0.854-0.615c0.196-0.41,0.294-1.002,0.294-1.776c0-0.778-0.099-1.374-0.296-1.787
		c-0.198-0.411-0.482-0.617-0.851-0.617c-0.373,0-0.656,0.202-0.848,0.607c-0.193,0.405-0.288,1.005-0.288,1.797
		c0,0.788,0.095,1.383,0.286,1.787C206.556,41.727,206.84,41.928,207.217,41.928z M206.333,34.88l1.114-2.531h1.377l-1.735,2.531
		H206.333z"/>
	<path fill="#2A92CC" d="M216.08,36.957c0.224-0.429,0.486-0.749,0.786-0.957c0.301-0.21,0.647-0.315,1.039-0.315
		c0.586,0,1.03,0.209,1.333,0.626c0.302,0.417,0.453,1.029,0.453,1.834v5.07h-1.685v-4.727c0-0.382-0.065-0.679-0.194-0.889
		c-0.128-0.21-0.313-0.314-0.551-0.314c-0.299,0-0.542,0.148-0.729,0.443c-0.186,0.297-0.279,0.689-0.279,1.178v4.308h-1.685v-4.699
		c0-0.406-0.063-0.713-0.186-0.92c-0.122-0.207-0.306-0.311-0.548-0.311c-0.287,0-0.521,0.137-0.703,0.413
		c-0.181,0.274-0.271,0.633-0.271,1.076v4.44h-1.685v-7.363h1.567v1.12c0.201-0.425,0.443-0.745,0.725-0.962
		c0.281-0.216,0.602-0.325,0.959-0.325c0.406,0,0.746,0.104,1.016,0.312C215.715,36.203,215.927,36.523,216.08,36.957z"/>
	<path fill="#2A92CC" d="M220.932,34.908v-1.629h1.764v1.629H220.932z M220.932,43.215v-7.363h1.764v7.363H220.932z"/>
	<path fill="#2A92CC" d="M227.551,38.649c-0.052-0.476-0.164-0.846-0.333-1.108c-0.169-0.264-0.379-0.396-0.63-0.396
		c-0.358,0-0.63,0.2-0.814,0.602c-0.186,0.4-0.277,0.992-0.277,1.776c0,0.769,0.094,1.36,0.282,1.772
		c0.189,0.413,0.459,0.619,0.809,0.619c0.276,0,0.504-0.134,0.687-0.402c0.181-0.268,0.292-0.635,0.333-1.102l1.5,0.21
		c-0.079,0.854-0.355,1.532-0.829,2.039c-0.474,0.505-1.069,0.758-1.786,0.758c-0.836,0-1.518-0.359-2.044-1.077
		c-0.526-0.718-0.79-1.648-0.79-2.791c0-1.174,0.271-2.117,0.812-2.828c0.542-0.711,1.258-1.066,2.149-1.066
		c0.68,0,1.239,0.247,1.68,0.741c0.44,0.495,0.709,1.177,0.807,2.049L227.551,38.649z"/>
	<path fill="#2A92CC" d="M233.798,43.215c-0.034-0.164-0.06-0.342-0.078-0.535c-0.02-0.194-0.032-0.409-0.04-0.647
		c-0.202,0.443-0.468,0.783-0.8,1.017c-0.332,0.235-0.715,0.354-1.147,0.354c-0.635,0-1.138-0.202-1.509-0.609
		c-0.372-0.405-0.558-0.954-0.558-1.643c0-0.872,0.335-1.532,1.004-1.982c0.67-0.449,1.663-0.681,2.976-0.696V38.16
		c0-0.373-0.083-0.655-0.249-0.847c-0.166-0.19-0.411-0.286-0.736-0.286c-0.358,0-0.641,0.087-0.848,0.262
		c-0.208,0.176-0.333,0.433-0.378,0.772l-1.606-0.216c0.138-0.723,0.453-1.269,0.943-1.637c0.491-0.368,1.15-0.552,1.979-0.552
		c0.918,0,1.579,0.223,1.979,0.671c0.401,0.447,0.602,1.182,0.602,2.202v3.266c0,0.327,0.015,0.605,0.043,0.836
		c0.028,0.23,0.072,0.425,0.132,0.583H233.798z M233.647,39.606c-0.702,0.015-1.238,0.143-1.61,0.384
		c-0.371,0.243-0.557,0.589-0.557,1.035c0,0.303,0.078,0.539,0.236,0.707c0.156,0.167,0.377,0.251,0.661,0.251
		c0.361,0,0.664-0.163,0.907-0.486c0.243-0.325,0.364-0.736,0.364-1.234V39.606z"/>
	<path fill="#2A92CC" d="M236.098,41.152l1.433-0.244c0.076,0.341,0.237,0.602,0.485,0.786c0.248,0.185,0.563,0.276,0.948,0.276
		c0.31,0,0.558-0.073,0.742-0.22s0.277-0.342,0.277-0.583c0-0.354-0.326-0.602-0.979-0.742c-0.194-0.042-0.345-0.077-0.454-0.104
		c-0.794-0.192-1.359-0.464-1.696-0.819c-0.336-0.354-0.503-0.839-0.503-1.454c0-0.718,0.228-1.299,0.686-1.74
		c0.457-0.443,1.061-0.666,1.811-0.666c0.635,0,1.163,0.163,1.587,0.487c0.424,0.324,0.729,0.8,0.916,1.43l-1.388,0.315
		c-0.101-0.285-0.246-0.495-0.437-0.63s-0.438-0.203-0.745-0.203c-0.287,0-0.506,0.063-0.658,0.189
		c-0.151,0.125-0.227,0.308-0.227,0.545c0,0.344,0.37,0.598,1.109,0.762c0.253,0.056,0.453,0.103,0.599,0.139
		c0.724,0.182,1.237,0.444,1.543,0.787c0.304,0.343,0.455,0.814,0.455,1.416c0,0.751-0.253,1.354-0.758,1.811
		c-0.506,0.458-1.182,0.686-2.029,0.686c-0.705,0-1.299-0.198-1.781-0.591C236.552,42.391,236.24,41.846,236.098,41.152z"/>
	<path fill="#2A92CC" d="M251.304,33.278v9.937h-1.606l-0.012-1.133c-0.194,0.433-0.428,0.762-0.7,0.986
		c-0.272,0.223-0.579,0.335-0.918,0.335c-0.72,0-1.292-0.345-1.716-1.035c-0.424-0.689-0.635-1.625-0.635-2.804
		s0.214-2.123,0.641-2.832c0.428-0.708,0.99-1.063,1.688-1.063c0.309,0,0.592,0.084,0.849,0.253
		c0.255,0.167,0.489,0.421,0.702,0.762v-3.406H251.304z M249.597,38.635c0-0.466-0.089-0.827-0.266-1.081s-0.43-0.381-0.758-0.381
		c-0.332,0-0.587,0.202-0.765,0.604c-0.177,0.404-0.266,0.985-0.266,1.746c0,0.774,0.088,1.355,0.264,1.745
		c0.174,0.389,0.439,0.583,0.794,0.583c0.283,0,0.52-0.142,0.71-0.426s0.286-0.648,0.286-1.091V38.635z"/>
	<path fill="#2A92CC" d="M258.178,40.964c-0.194,0.783-0.543,1.388-1.049,1.814c-0.506,0.426-1.123,0.64-1.851,0.64
		c-0.914,0-1.651-0.354-2.212-1.063c-0.559-0.708-0.84-1.643-0.84-2.804c0-1.137,0.293-2.07,0.879-2.8
		c0.586-0.729,1.337-1.094,2.251-1.094c0.889,0,1.586,0.35,2.094,1.052s0.762,1.667,0.762,2.898v0.301h-4.148
		c0,0.639,0.111,1.131,0.333,1.475c0.221,0.346,0.538,0.518,0.948,0.518c0.291,0,0.54-0.096,0.745-0.29
		c0.205-0.193,0.347-0.465,0.425-0.814L258.178,40.964z M254.086,38.705l2.34-0.006c-0.007-0.527-0.112-0.933-0.313-1.217
		c-0.201-0.284-0.487-0.426-0.857-0.426c-0.347,0-0.623,0.146-0.828,0.437C254.223,37.783,254.108,38.187,254.086,38.705z"/>
	<path fill="#2A92CC" d="M267.309,36.957c-0.037-0.657-0.18-1.172-0.425-1.546c-0.247-0.372-0.564-0.559-0.952-0.559
		c-0.519,0-0.913,0.289-1.184,0.866c-0.271,0.579-0.407,1.42-0.407,2.524c0,1.11,0.135,1.945,0.4,2.504
		c0.268,0.559,0.664,0.839,1.19,0.839c0.381,0,0.691-0.167,0.933-0.503c0.24-0.336,0.403-0.828,0.489-1.476l1.696,0.217
		c-0.134,1.138-0.475,2.018-1.022,2.643s-1.252,0.938-2.118,0.938c-1.072,0-1.921-0.464-2.55-1.392
		c-0.63-0.928-0.943-2.184-0.943-3.77c0-1.574,0.317-2.831,0.951-3.765c0.635-0.935,1.485-1.402,2.554-1.402
		c0.884,0,1.6,0.323,2.147,0.969c0.545,0.646,0.874,1.553,0.981,2.723L267.309,36.957z"/>
	<path fill="#2A92CC" d="M272.634,43.417c-0.889,0-1.606-0.356-2.153-1.069c-0.547-0.714-0.82-1.65-0.82-2.812
		c0-1.166,0.273-2.103,0.818-2.814c0.544-0.711,1.264-1.066,2.156-1.066c0.895,0,1.615,0.355,2.161,1.066
		c0.544,0.711,0.816,1.649,0.816,2.814c0,1.166-0.272,2.104-0.816,2.815C274.249,43.062,273.529,43.417,272.634,43.417z
		 M272.634,41.928c0.373,0,0.658-0.205,0.853-0.615c0.197-0.41,0.294-1.002,0.294-1.776c0-0.778-0.099-1.374-0.296-1.787
		c-0.198-0.411-0.482-0.617-0.851-0.617c-0.374,0-0.657,0.202-0.848,0.607c-0.193,0.405-0.288,1.005-0.288,1.797
		c0,0.788,0.095,1.383,0.285,1.787C271.972,41.727,272.256,41.928,272.634,41.928z M271.749,34.88l1.115-2.531h1.377l-1.736,2.531
		H271.749z"/>
	<path fill="#2A92CC" d="M276.591,43.215v-7.363h1.522v1.553c0.134-0.597,0.334-1.038,0.602-1.322
		c0.268-0.285,0.609-0.426,1.028-0.426c0.037,0,0.11,0.005,0.217,0.013c0.034,0.005,0.06,0.01,0.079,0.015v1.986
		c-0.008,0-0.017,0-0.028,0c-0.15-0.02-0.257-0.028-0.325-0.028c-0.437,0-0.777,0.174-1.021,0.521
		c-0.246,0.348-0.368,0.829-0.368,1.444v3.608H276.591z"/>
	<path fill="#2A92CC" d="M286.086,33.278v9.937h-1.606l-0.012-1.133c-0.194,0.433-0.427,0.762-0.699,0.986
		c-0.272,0.223-0.579,0.335-0.918,0.335c-0.721,0-1.293-0.345-1.717-1.035c-0.423-0.689-0.635-1.625-0.635-2.804
		s0.214-2.123,0.641-2.832c0.427-0.708,0.99-1.063,1.688-1.063c0.309,0,0.592,0.084,0.849,0.253
		c0.255,0.167,0.489,0.421,0.702,0.762v-3.406H286.086z M284.378,38.635c0-0.466-0.089-0.827-0.267-1.081
		c-0.177-0.254-0.43-0.381-0.758-0.381c-0.332,0-0.587,0.202-0.764,0.604c-0.177,0.404-0.266,0.985-0.266,1.746
		c0,0.774,0.088,1.355,0.264,1.745c0.175,0.389,0.439,0.583,0.795,0.583c0.283,0,0.52-0.142,0.71-0.426s0.286-0.648,0.286-1.091
		V38.635z"/>
	<path fill="#2A92CC" d="M289.982,43.417c-0.889,0-1.606-0.356-2.153-1.069c-0.547-0.714-0.82-1.65-0.82-2.812
		c0-1.166,0.273-2.103,0.818-2.814c0.544-0.711,1.264-1.066,2.156-1.066c0.895,0,1.615,0.355,2.161,1.066
		c0.544,0.711,0.816,1.649,0.816,2.814c0,1.166-0.272,2.104-0.816,2.815C291.597,43.062,290.877,43.417,289.982,43.417z
		 M289.982,41.928c0.373,0,0.658-0.205,0.853-0.615c0.197-0.41,0.294-1.002,0.294-1.776c0-0.778-0.099-1.374-0.296-1.787
		c-0.198-0.411-0.482-0.617-0.851-0.617c-0.374,0-0.657,0.202-0.848,0.607c-0.193,0.405-0.288,1.005-0.288,1.797
		c0,0.788,0.095,1.383,0.285,1.787C289.321,41.727,289.605,41.928,289.982,41.928z"/>
	<path fill="#2A92CC" d="M293.895,43.243v-9.964h1.708v3.595c0.13-0.374,0.344-0.669,0.641-0.889
		c0.296-0.219,0.63-0.329,0.998-0.329c0.666,0,1.205,0.345,1.621,1.039c0.417,0.692,0.624,1.6,0.624,2.724
		c0,1.188-0.227,2.147-0.683,2.877c-0.455,0.729-1.048,1.094-1.779,1.094c-0.377,0-0.724-0.111-1.039-0.332
		c-0.316-0.221-0.593-0.547-0.831-0.975l-0.336,1.161H293.895z M295.603,40.424c0,0.466,0.086,0.831,0.26,1.095
		c0.173,0.264,0.415,0.396,0.725,0.396c0.351,0,0.618-0.196,0.801-0.588c0.182-0.391,0.273-0.965,0.273-1.72
		c0-0.843-0.088-1.465-0.262-1.863c-0.176-0.399-0.451-0.598-0.823-0.598c-0.277,0-0.508,0.132-0.694,0.396
		c-0.187,0.262-0.28,0.597-0.28,1.003V40.424z"/>
	<path fill="#2A92CC" d="M304.27,43.215c-0.034-0.164-0.06-0.342-0.078-0.535c-0.02-0.194-0.032-0.409-0.041-0.647
		c-0.201,0.443-0.467,0.783-0.799,1.017c-0.332,0.235-0.715,0.354-1.147,0.354c-0.635,0-1.138-0.202-1.509-0.609
		c-0.373-0.405-0.558-0.954-0.558-1.643c0-0.872,0.336-1.532,1.005-1.982c0.67-0.449,1.663-0.681,2.976-0.696V38.16
		c0-0.373-0.083-0.655-0.249-0.847c-0.166-0.19-0.412-0.286-0.736-0.286c-0.359,0-0.641,0.087-0.849,0.262
		c-0.208,0.176-0.333,0.433-0.378,0.772l-1.606-0.216c0.138-0.723,0.453-1.269,0.944-1.637c0.49-0.368,1.149-0.552,1.979-0.552
		c0.918,0,1.578,0.223,1.979,0.671c0.401,0.447,0.603,1.182,0.603,2.202v3.266c0,0.327,0.014,0.605,0.042,0.836
		s0.072,0.425,0.132,0.583H304.27z M304.118,39.606c-0.702,0.015-1.238,0.143-1.61,0.384c-0.371,0.243-0.557,0.589-0.557,1.035
		c0,0.303,0.078,0.539,0.235,0.707c0.156,0.167,0.377,0.251,0.66,0.251c0.361,0,0.664-0.163,0.907-0.486
		c0.243-0.325,0.364-0.736,0.364-1.234V39.606z"/>
</g>
<path fill="#045DA2" d="M27.932,21.088c-0.145-0.1-0.317-0.189-0.508-0.292c-0.205-0.06-0.394-0.121-0.642-0.121
	c-0.435,0-0.858,0.121-1.223,0.34c-0.347,0.246-0.492,0.58-0.509,0.971v0.046c0,0.246,0.12,0.498,0.263,0.681
	c0.175,0.191,0.408,0.382,0.64,0.469c0.274,0.103,0.522,0.131,0.715,0.131c0.437,0,0.83-0.131,1.15-0.377
	c0.322-0.248,0.525-0.57,0.525-0.935v-0.015c0-0.159-0.045-0.3-0.088-0.448C28.179,21.376,28.049,21.219,27.932,21.088"/>
<path fill="#045DA2" d="M13.915,21.088c-0.16-0.1-0.32-0.189-0.508-0.292c-0.208-0.06-0.395-0.121-0.64-0.121
	c-0.438,0-0.875,0.121-1.226,0.34c-0.35,0.246-0.513,0.58-0.525,0.971v0.046c0,0.246,0.133,0.498,0.281,0.681
	c0.157,0.191,0.392,0.382,0.637,0.469c0.263,0.103,0.508,0.131,0.712,0.131c0.438,0,0.833-0.131,1.151-0.377
	c0.304-0.248,0.509-0.57,0.509-0.935v-0.015c0-0.159-0.044-0.3-0.072-0.448C14.146,21.376,14.032,21.219,13.915,21.088"/>
<path fill="#045DA2" d="M18.266,21.303v-0.029c0-0.317-0.317-0.505-0.945-0.538h-0.48v0.567v0.567h0.552
	C17.973,21.871,18.296,21.668,18.266,21.303"/>
<polygon fill="#045DA2" points="35.796,21.058 35.534,21.64 35.272,22.221 36.309,22.221 36.057,21.64 "/>
<path fill="#045DA2" d="M21.835,20.899c-0.277-0.132-0.67-0.162-1.152-0.162v1.223v1.224c0.64,0.031,1.152-0.026,1.515-0.248
	c0.392-0.189,0.597-0.497,0.597-0.933V21.96c-0.015-0.233-0.103-0.436-0.249-0.61C22.388,21.115,22.153,20.99,21.835,20.899"/>
<path fill="#045DA2" d="M31.937,22.367c-0.16-0.084-0.394-0.115-0.551-0.115h-0.525v0.495v0.498h0.436
	c0.582,0,0.859-0.165,0.874-0.498v-0.032C32.171,22.559,32.094,22.44,31.937,22.367"/>
<path fill="#045DA2" d="M31.704,21.436c0.117-0.029,0.19-0.146,0.19-0.304v-0.016c0-0.127-0.073-0.218-0.233-0.275
	c-0.117-0.075-0.319-0.105-0.47-0.105h-0.33v0.396v0.406h0.248C31.386,21.539,31.586,21.494,31.704,21.436"/>
<path fill="#045DA2" d="M38.763,1.818C38.106,1.161,37.276,0.8,36.42,0.8H6.503c-2.058,0-3.735,2.11-3.735,4.711v16.564
	c0,1.46,0.515,2.813,1.415,3.715c0.663,0.66,1.467,1.013,2.32,1.013H36.42c0.865,0,1.672-0.353,2.34-1.018
	c0.897-0.902,1.415-2.25,1.415-3.71V5.511C40.173,4.056,39.658,2.71,38.763,1.818 M6.343,22.938c0.35,0.248,0.745,0.375,1.15,0.375
	c0.477,0,0.917-0.16,1.224-0.461h1.073c-0.157,0.274-0.402,0.52-0.68,0.709c-0.26,0.163-0.598,0.277-0.86,0.351
	c-0.32,0.058-0.597,0.088-0.83,0.058c-0.48,0-0.869-0.098-1.239-0.246c-0.36-0.163-0.623-0.41-0.87-0.728
	c-0.19-0.28-0.308-0.657-0.351-1.062c0-0.178,0.076-0.396,0.16-0.61c0.104-0.234,0.28-0.449,0.51-0.64
	c0.19-0.19,0.48-0.38,0.8-0.496c0.308-0.132,0.658-0.189,1.065-0.189c0.317,0,0.623,0.057,0.915,0.145
	c0.308,0.07,0.625,0.217,0.873,0.407c0.236,0.157,0.441,0.376,0.54,0.598h-1.02c-0.393-0.308-0.828-0.465-1.31-0.465
	c-0.278,0-0.553,0.053-0.801,0.186c-0.234,0.12-0.465,0.274-0.625,0.507c-0.117,0.19-0.205,0.41-0.205,0.627
	C5.863,22.368,6.039,22.688,6.343,22.938 M15.223,22.124c0,0.244-0.127,0.54-0.32,0.814c-0.16,0.305-0.477,0.565-0.842,0.785
	c-0.396,0.19-0.861,0.281-1.413,0.248c-0.408,0-0.803-0.057-1.108-0.157c-0.32-0.12-0.597-0.277-0.799-0.47
	c-0.187-0.188-0.39-0.438-0.468-0.628c-0.085-0.217-0.127-0.432-0.127-0.65v-0.072c0.01-0.41,0.142-0.758,0.362-1.066
	c0.232-0.303,0.597-0.565,0.947-0.713c0.392-0.131,0.828-0.215,1.222-0.215c0.36,0,0.725,0.057,1.035,0.189
	c0.317,0.085,0.596,0.273,0.828,0.462c0.203,0.19,0.408,0.438,0.51,0.698c0.1,0.205,0.158,0.423,0.172,0.64V22.124z M19.216,23.913
	h-1.092l-1.283-1.472v1.472h-0.917v-2.61v-1.221h1.322c0.355-0.027,0.702,0,0.978,0.105c0.29,0.05,0.525,0.216,0.683,0.388
	c0.16,0.193,0.277,0.425,0.277,0.728v0.02c0,0.243-0.084,0.491-0.277,0.713c-0.245,0.243-0.567,0.405-0.99,0.463l1.3,1.412V23.913z
	 M23.493,22.775c-0.16,0.35-0.437,0.596-0.863,0.815c-0.39,0.22-1.002,0.32-1.742,0.32h-1.104V21.96v-1.877h0.856
	c0.363,0,0.728,0.03,1.078,0.056c0.32,0.049,0.637,0.134,0.912,0.265c0.265,0.146,0.513,0.332,0.703,0.552
	c0.205,0.262,0.337,0.582,0.337,0.915v0.089C23.684,22.208,23.651,22.499,23.493,22.775 M29.243,22.124
	c0,0.244-0.117,0.54-0.322,0.814c-0.143,0.305-0.465,0.565-0.828,0.785c-0.392,0.19-0.875,0.281-1.427,0.248
	c-0.393,0-0.782-0.057-1.107-0.157c-0.321-0.12-0.596-0.277-0.798-0.47c-0.191-0.188-0.395-0.438-0.468-0.628
	c-0.072-0.217-0.119-0.432-0.119-0.65v-0.072c0.02-0.41,0.133-0.758,0.353-1.066c0.234-0.303,0.597-0.565,0.964-0.713
	c0.393-0.131,0.83-0.215,1.223-0.215c0.349,0,0.709,0.057,1.03,0.189c0.307,0.085,0.597,0.273,0.829,0.462
	c0.205,0.19,0.393,0.438,0.513,0.698c0.1,0.205,0.145,0.423,0.16,0.64C29.245,22.036,29.245,22.076,29.243,22.124 M33.13,22.806
	c0,0.157-0.045,0.347-0.202,0.506c-0.117,0.19-0.325,0.333-0.6,0.438c-0.26,0.082-0.593,0.16-0.987,0.16h-1.386v-1.167v-1.61v-1.051
	h1.238c0.51,0,0.95,0.105,1.224,0.276c0.233,0.192,0.394,0.405,0.394,0.657v0.118c-0.028,0.347-0.205,0.568-0.525,0.712
	c0.292,0.088,0.525,0.215,0.643,0.376c0.145,0.129,0.188,0.309,0.202,0.522V22.806z M37.206,23.911l-0.508-0.973h-1.792
	l-0.508,0.973H33.41l1.193-2.271l0.827-1.558h0.716l0.832,1.558l1.22,2.271H37.206z M38.958,18.045H3.978V5.511
	C3.98,4.39,4.375,3.329,5.036,2.67c0.432-0.43,0.938-0.659,1.467-0.659H36.42c0.541,0,1.05,0.229,1.483,0.664
	c0.661,0.66,1.055,1.72,1.055,2.836V18.045z"/>
<path fill="#2A92CC" d="M10.72,14.721c-0.343,1.161-0.818,1.88-1.333,1.88c-0.509,0-0.974-0.719-1.315-1.88
	c-0.337-1.167-0.55-2.774-0.55-4.552c0-1.768,0.213-3.371,0.55-4.54c0.341-1.16,0.806-1.882,1.315-1.882
	c0.515,0,0.99,0.723,1.333,1.882c0.132,0.447,0.248,0.972,0.337,1.539h1.978c-0.194-0.762-0.467-1.462-0.794-2.052
	c-0.721-1.283-1.703-2.083-2.78-2.083c-1.078,0-2.058,0.799-2.767,2.083c-0.708,1.293-1.147,3.07-1.147,5.038
	c0,1.964,0.439,3.741,1.147,5.034c0.709,1.285,1.689,2.085,2.767,2.085c1.077,0,2.059-0.8,2.78-2.085
	c0.34-0.604,0.615-1.32,0.811-2.107h-1.98C10.98,13.688,10.863,14.244,10.72,14.721"/>
<path fill="#2A92CC" d="M25.109,16.512c-1.021,0-1.875-2.877-1.875-6.43c0-3.535,0.852-6.421,1.875-6.421
	c0.71,0,1.34,1.396,1.658,3.438h2C28.142,4.647,26.77,2.95,25.197,2.95c-2.156,0-3.931,3.188-3.931,7.118
	c0,3.946,1.772,7.117,3.931,7.117c1.58,0,2.954-1.71,3.577-4.18h-1.997C26.462,15.087,25.827,16.512,25.109,16.512"/>
<path fill="#2A92CC" d="M19.403,3.822c-0.568-0.465-1.383-0.713-2.348-0.713h-2.748v4.382v9.726h1.88v-5.346h1.235
	c1.019,0,1.818-0.379,2.373-1.133c0.585-0.757,0.915-1.834,0.988-3.089c0-0.052,0-0.1,0.015-0.158
	c0.017-0.658-0.071-1.327-0.231-1.937C20.333,4.872,19.94,4.258,19.403,3.822 M18.923,7.666c-0.073,2.11-0.188,3.378-2.373,3.378
	h-0.363V7.491V3.954l0.248-0.01c0.215,0.093,2.588-0.661,2.488,3.53V7.666z"/>
<path fill="#2A92CC" d="M33.146,16.512c-0.935,0-1.73-2.407-1.858-5.542h3.85V9.394h-3.86c0.103-3.214,0.916-5.732,1.868-5.732
	c0.71,0,1.343,1.396,1.66,3.438h1.982c-0.623-2.452-1.995-4.149-3.571-4.149c-2.154,0-3.929,3.188-3.929,7.118
	c0,3.946,1.775,7.117,3.929,7.117c1.583,0,2.96-1.71,3.581-4.18h-1.982C34.501,15.092,33.864,16.512,33.146,16.512"/>
</svg>
