<?xml version="1.0" encoding="utf-8"?>
<!-- Generator: Adobe Illustrator 22.1.0, SVG Export Plug-In . SVG Version: 6.00 Build 0)  -->
<svg version="1.1" id="Capa_1" xmlns="http://www.w3.org/2000/svg" xmlns:xlink="http://www.w3.org/1999/xlink" x="0px" y="0px"
	 viewBox="0 0 139.6 47.4" style="enable-background:new 0 0 139.6 47.4;" xml:space="preserve">
<style type="text/css">
	.st0{display:none;}
	.st1{display:inline;fill:#FFFFFF;}
	.st2{display:inline;}
	.st3{clip-path:url(#SVGID_2_);fill:#2A92CC;}
	.st4{fill:#FFFFFF;}
</style>
<g id="Capa_1_1_" class="st0">
	<path class="st1" d="M8.9,11.8c5,0,7.9,2.4,7.9,6.6c0,4.4-2.9,7-7.9,7H5.8v5H0V11.8H8.9z M5.8,21.1h2.8c1.7,0,2.7-0.9,2.7-2.6
		c0-1.6-1-2.5-2.7-2.5H5.8V21.1z"/>
	<path class="st1" d="M23.6,18.2c1.1-1.6,2.7-2.5,4.8-2.5v4.8c-2.9-0.3-4.8,0.8-4.8,2.9v6.9H18V15.9h5.6V18.2z"/>
	<path class="st1" d="M44,24.4H33.8c0.4,1.4,1.5,2.2,3,2.2c1.2,0,2.3-0.5,3.3-1.4l2.9,2.7c-1.6,1.7-3.9,2.6-6.7,2.6
		c-5.1,0-8.2-2.9-8.2-7.4c0-4.5,3.2-7.5,8-7.5C41.4,15.7,44.3,19.1,44,24.4 M38.4,21.8c0-1.4-0.9-2.4-2.3-2.4c-1.3,0-2.2,1-2.5,2.4
		H38.4z"/>
	<path class="st1" d="M57.6,17.4l-1.9,3.4c-2.1-1-3.8-1.5-5-1.5c-0.7,0-1.1,0.2-1.1,0.7c0,1.6,7.9,0.9,7.9,5.8c0,3-2.7,4.8-6.7,4.8
		c-2.7,0-5.2-0.7-7.1-2l1.7-3.4c1.9,1.2,3.8,1.8,5.5,1.8c0.8,0,1.3-0.2,1.3-0.7c0-1.6-7.7-0.9-7.7-5.8c0-3,2.6-4.8,6.5-4.8
		C53.3,15.7,55.6,16.3,57.6,17.4"/>
	<path class="st1" d="M73.6,24.4H63.4c0.4,1.4,1.5,2.2,3,2.2c1.2,0,2.3-0.5,3.3-1.4l2.9,2.7c-1.6,1.7-3.9,2.6-6.7,2.6
		c-5.1,0-8.2-2.9-8.2-7.4c0-4.5,3.2-7.5,8-7.5C71,15.7,73.9,19.1,73.6,24.4 M68.1,21.8c0-1.4-0.9-2.4-2.3-2.4c-1.3,0-2.2,1-2.5,2.4
		H68.1z"/>
	<path class="st1" d="M90.7,21.2v9.2H85v-7.6c0-1.4-0.9-2.3-2.2-2.3c-1.5,0-2.5,1.2-2.5,2.8v7.1h-5.6V15.9h5.6v2.2
		c1.1-1.6,2.7-2.4,4.8-2.4C88.4,15.7,90.7,17.9,90.7,21.2"/>
	<path class="st1" d="M106.3,19.5l-4.3,2c-0.5-0.9-1.4-1.4-2.4-1.4c-1.5,0-2.5,1.2-2.5,3.1c0,1.9,1,3.1,2.5,3.1
		c1.1,0,1.9-0.5,2.4-1.6l4.4,2.1c-1.2,2.4-3.7,3.7-7.1,3.7c-4.8,0-7.9-2.9-7.9-7.4c0-4.5,3.1-7.5,7.9-7.5
		C102.5,15.7,105,17.1,106.3,19.5"/>
	<path class="st1" d="M131.9,21v9.4h-5.5v-1.6c-0.9,1.2-2.4,1.8-4.4,1.8c-3.2,0-5.1-1.8-5.1-4.5c0-2.8,2-4.3,5.9-4.4h3.7v-0.1
		c0-1.2-0.9-1.9-2.6-1.9c-1.2,0-2.9,0.3-4.6,1l-1.4-3.6c2.5-1,4.9-1.5,7.3-1.5C129.4,15.7,131.9,17.6,131.9,21 M126.4,25.6v-1.3
		h-2.6c-1.1,0-1.7,0.5-1.7,1.4c0,0.9,0.6,1.4,1.7,1.4C125,27.1,126,26.5,126.4,25.6"/>
	<rect x="133.3" y="10.7" class="st1" width="5.6" height="19.7"/>
	<path class="st1" d="M111.5,8.6c-1.8,0-3.3,1.5-3.3,3.3c0,1.8,1.5,3.3,3.3,3.3c1.8,0,3.3-1.5,3.3-3.3
		C114.9,10.1,113.4,8.6,111.5,8.6 M107,30.6h9.1v-9.3c0-2.9-1.6-5.2-4.5-5.2c-2.9,0-4.6,2.3-4.6,5.2V30.6z"/>
	<g class="st2">
		<g>
			<g>
				<defs>
					<path id="SVGID_1_" d="M107,21.4v9.3h9.1v-9.3c0-2.9-1.7-5.2-4.5-5.2C108.6,16.2,107,18.5,107,21.4 M108.2,12
						c0,1.8,1.5,3.3,3.3,3.3c1.8,0,3.3-1.5,3.3-3.3c0-1.8-1.5-3.3-3.3-3.3C109.7,8.6,108.2,10.1,108.2,12"/>
				</defs>
				<clipPath id="SVGID_2_">
					<use xlink:href="#SVGID_1_"  style="overflow:visible;"/>
				</clipPath>
				<rect x="111.7" y="5" class="st3" width="6.9" height="29.7"/>
			</g>
		</g>
	</g>
	<polygon class="st1" points="27.4,11.4 27.4,4.5 24.7,10.4 23.2,10.4 20.4,4.5 20.4,11.4 18.3,11.4 18.3,1.1 20.9,1.1 23.9,7.4 
		26.9,1.1 29.5,1.1 29.5,11.4 	"/>
	<path class="st1" d="M38.9,7.5c0,2.4-1.7,4.1-4.2,4.1c-2.5,0-4.3-1.6-4.3-4.1c0-2.4,1.7-4,4.3-4C37.1,3.4,38.9,5.1,38.9,7.5
		 M32.6,7.5c0,1.3,0.8,2.2,2,2.2c1.2,0,2-0.9,2-2.2s-0.8-2.2-2-2.2C33.4,5.3,32.6,6.2,32.6,7.5"/>
	<path class="st1" d="M47.4,11.4h-2.3v-1.2c-0.6,0.8-1.4,1.3-2.5,1.3c-2.3,0-3.7-1.6-3.7-4.1c0-2.4,1.5-4,3.7-4c1.1,0,2,0.4,2.6,1.3
		V0.5h2.3V11.4z M45.2,7.5c0-1.3-0.8-2.2-2-2.2c-1.2,0-2,0.9-2,2.2c0,1.3,0.8,2.2,2,2.2C44.4,9.7,45.2,8.8,45.2,7.5"/>
	<path class="st1" d="M53.6,10.5c-0.5,0.7-1.4,1-2.5,1c-1.7,0-2.7-1-2.7-2.5c0-1.5,1.1-2.4,3-2.4h2.2V6.5c0-0.8-0.6-1.3-1.7-1.3
		c-0.7,0-1.5,0.2-2.4,0.7l-0.7-1.6C50,3.8,51,3.4,52.4,3.4c2.1,0,3.3,1.1,3.4,2.8l0,5.2h-2.2C53.6,11.4,53.6,10.5,53.6,10.5z
		 M53.6,8.7V8h-1.8c-0.9,0-1.3,0.3-1.3,0.9c0,0.6,0.5,1,1.2,1C52.7,9.9,53.4,9.4,53.6,8.7"/>
	<rect x="57.1" y="0.5" class="st1" width="2.3" height="10.9"/>
	<path class="st1" d="M63.3,1.3c0,0.7-0.5,1.3-1.2,1.3c-0.7,0-1.2-0.5-1.2-1.3C60.8,0.5,61.3,0,62,0C62.8,0,63.3,0.5,63.3,1.3
		 M60.9,3.5h2.3v7.9h-2.3V3.5z"/>
	<path class="st1" d="M72.4,11.4h-2.3v-1.2c-0.6,0.8-1.4,1.3-2.5,1.3c-2.3,0-3.7-1.6-3.7-4.1c0-2.4,1.5-4,3.7-4c1.1,0,2,0.4,2.6,1.3
		V0.5h2.3C72.4,0.5,72.4,11.4,72.4,11.4z M70.2,7.5c0-1.3-0.8-2.2-2-2.2c-1.2,0-2,0.9-2,2.2c0,1.3,0.8,2.2,2,2.2
		C69.4,9.7,70.2,8.8,70.2,7.5"/>
	<path class="st1" d="M78.6,10.5c-0.5,0.7-1.4,1-2.5,1c-1.7,0-2.7-1-2.7-2.5c0-1.5,1.1-2.4,3-2.4h2.2V6.5c0-0.8-0.6-1.3-1.7-1.3
		c-0.7,0-1.5,0.2-2.4,0.7l-0.7-1.6C75,3.8,76,3.4,77.4,3.4c2.1,0,3.3,1.1,3.4,2.8l0,5.2h-2.2L78.6,10.5L78.6,10.5z M78.6,8.7V8h-1.8
		c-0.9,0-1.3,0.3-1.3,0.9c0,0.6,0.5,1,1.2,1C77.7,9.9,78.4,9.4,78.6,8.7"/>
	<path class="st1" d="M89.8,11.4h-2.3v-1.2c-0.6,0.8-1.4,1.3-2.5,1.3c-2.3,0-3.7-1.6-3.7-4.1c0-2.4,1.5-4,3.7-4c1.1,0,2,0.4,2.6,1.3
		V0.5h2.3V11.4z M87.6,7.5c0-1.3-0.8-2.2-2-2.2c-1.2,0-2,0.9-2,2.2c0,1.3,0.8,2.2,2,2.2C86.8,9.7,87.6,8.8,87.6,7.5"/>
</g>
<g id="Capa_3">
	<polygon class="st4" points="46.8,11.4 46.8,4.5 44.1,10.4 42.6,10.4 39.8,4.5 39.8,11.4 37.7,11.4 37.7,1.1 40.3,1.1 43.3,7.4 
		46.3,1.1 48.9,1.1 48.9,11.4 	"/>
	<path class="st4" d="M58.2,7.5c0,2.4-1.7,4.1-4.2,4.1c-2.5,0-4.3-1.6-4.3-4.1c0-2.4,1.7-4,4.3-4C56.5,3.4,58.2,5.1,58.2,7.5
		 M52,7.5c0,1.3,0.8,2.2,2,2.2c1.2,0,2-0.9,2-2.2s-0.8-2.2-2-2.2C52.8,5.3,52,6.2,52,7.5"/>
	<path class="st4" d="M66.8,11.4h-2.3v-1.2c-0.6,0.8-1.4,1.3-2.5,1.3c-2.3,0-3.7-1.6-3.7-4.1c0-2.4,1.5-4,3.7-4c1.1,0,2,0.4,2.6,1.3
		V0.5h2.3V11.4z M64.6,7.5c0-1.3-0.8-2.2-2-2.2c-1.2,0-2,0.9-2,2.2c0,1.3,0.8,2.2,2,2.2C63.8,9.7,64.6,8.8,64.6,7.5"/>
	<path class="st4" d="M73,10.5c-0.5,0.7-1.4,1-2.5,1c-1.7,0-2.7-1-2.7-2.5c0-1.5,1.1-2.4,3-2.4h2.2V6.5c0-0.8-0.6-1.3-1.7-1.3
		c-0.7,0-1.5,0.2-2.4,0.7l-0.7-1.6c1.2-0.6,2.2-0.9,3.6-0.9c2.1,0,3.3,1.1,3.4,2.8l0,5.2H73L73,10.5L73,10.5z M72.9,8.7V8h-1.8
		c-0.9,0-1.3,0.3-1.3,0.9c0,0.6,0.5,1,1.2,1C72.1,9.9,72.8,9.4,72.9,8.7"/>
	<rect x="76.5" y="0.5" class="st4" width="2.3" height="10.9"/>
	<path class="st4" d="M82.6,1.3c0,0.7-0.5,1.3-1.2,1.3c-0.7,0-1.2-0.5-1.2-1.3c0-0.7,0.5-1.3,1.2-1.3S82.6,0.5,82.6,1.3 M80.3,3.5
		h2.3v7.9h-2.3V3.5z"/>
	<path class="st4" d="M91.8,11.4h-2.3v-1.2c-0.6,0.8-1.4,1.3-2.5,1.3c-2.3,0-3.7-1.6-3.7-4.1c0-2.4,1.5-4,3.7-4c1.1,0,2,0.4,2.6,1.3
		V0.5h2.3L91.8,11.4L91.8,11.4z M89.6,7.5c0-1.3-0.8-2.2-2-2.2c-1.2,0-2,0.9-2,2.2c0,1.3,0.8,2.2,2,2.2C88.8,9.7,89.6,8.8,89.6,7.5"
		/>
	<path class="st4" d="M98,10.5c-0.5,0.7-1.4,1-2.5,1c-1.7,0-2.7-1-2.7-2.5c0-1.5,1.1-2.4,3-2.4h2.2V6.5c0-0.8-0.6-1.3-1.6-1.3
		c-0.7,0-1.5,0.2-2.4,0.7l-0.7-1.6c1.2-0.6,2.2-0.9,3.6-0.9c2.1,0,3.3,1.1,3.4,2.8l0,5.2H98C98,11.5,98,10.5,98,10.5z M97.9,8.7V8
		h-1.8c-0.9,0-1.3,0.3-1.3,0.9c0,0.6,0.5,1,1.2,1C97.1,9.9,97.8,9.4,97.9,8.7"/>
	<path class="st4" d="M109.2,11.4H107v-1.2c-0.6,0.8-1.4,1.3-2.5,1.3c-2.3,0-3.7-1.6-3.7-4.1c0-2.4,1.5-4,3.7-4c1.1,0,2,0.4,2.6,1.3
		V0.5h2.3V11.4z M107,7.5c0-1.3-0.8-2.2-2-2.2c-1.2,0-2,0.9-2,2.2c0,1.3,0.8,2.2,2,2.2C106.2,9.7,107,8.8,107,7.5"/>
	<path class="st4" d="M54.8,25.5c0,6.1-4.3,10.1-10.7,10.1c-6.5,0-10.8-4-10.8-10.1c0-6.1,4.3-10,10.8-10
		C50.5,15.5,54.8,19.5,54.8,25.5 M39.7,25.6c0,3.1,1.8,5.1,4.4,5.1c2.6,0,4.4-2,4.4-5.1c0-3-1.8-5.1-4.4-5.1
		C41.5,20.5,39.7,22.6,39.7,25.6"/>
	<path class="st4" d="M89.8,23v12.4h-6.3V24.7c0-2.3-1.3-3.8-3.4-3.8c-2.4,0.1-3.8,2-3.8,4.7v9.7h-6.3V24.7c0-2.3-1.3-3.8-3.4-3.8
		c-2.4,0.1-3.9,2-3.9,4.7v9.7h-6.3V15.7h6.3V19c1.4-2.3,3.6-3.5,6.5-3.5c3.2,0,5.6,1.7,6.6,4.5c1.3-2.9,3.7-4.4,6.9-4.5
		C87,15.4,89.8,18.4,89.8,23"/>
	<path class="st4" d="M111,27.2H97.1c0.6,2.3,2.3,3.6,4.6,3.6c1.7,0,3.4-0.7,4.7-2l3.3,3.2c-2,2.2-5,3.5-8.6,3.5
		c-6.4,0-10.4-4-10.4-10c0-6.1,4.2-10.1,10.3-10.1C108,15.5,111.4,20.1,111,27.2 M104.9,23.9c0-2.4-1.5-4-3.8-4
		c-2.2,0-3.7,1.6-4.1,4H104.9z"/>
	<path class="st4" d="M23,1.1v14.1H8.7V1.1H0v34.4h8.7v0h0.8C8.6,34.2,8,32.7,8,31v-8.8h0.7v0h3.4v0h1.4v0H23v0h0.5v1.2
		c0.1,0,0.2,0,0.3,0c2.6,0,4.7,2.2,4.7,5s-2.1,5-4.7,5c-0.2,0-0.5,0-0.7-0.1c-0.3,0.8-0.7,1.6-1.2,2.2H23v0h8.7V1.1H23z"/>
	<path class="st4" d="M26.3,28.3c0-1.5-1.1-2.6-2.5-2.6c-0.1,0-0.2,0-0.4,0v5.2c0.1,0,0.2,0,0.4,0C25.2,31,26.3,29.8,26.3,28.3"/>
	<rect x="12.2" y="22.1" class="st4" width="1.4" height="0"/>
	<rect x="12.2" y="22.1" class="st4" width="1.4" height="0"/>
	<path class="st4" d="M13.5,25.2v-3.1h-1.4v3.1h-1.5v4.5v0.2c0.2,0.8,1,1.3,1.8,1.3h0.8c0.8,0,1.5-0.5,1.8-1.2v-0.4v-4.5L13.5,25.2
		L13.5,25.2z"/>
</g>
<g id="Capa_2_1_" class="st0">
	<g class="st2">
		<polygon class="st4" points="33.8,33.6 26,23.4 26,33.6 21,33.6 21,15.3 25.7,15.3 33.4,25.5 33.4,15.3 38.4,15.3 38.4,33.6 		"/>
		<polygon class="st4" points="53.6,29.1 53.6,33.6 40.4,33.6 40.4,15.3 45.9,15.3 45.9,29.1 		"/>
		<rect x="54.4" y="15.3" class="st4" width="5.4" height="18.4"/>
		<polygon class="st4" points="74.7,33.6 66.9,23.4 66.9,33.6 61.9,33.6 61.9,15.3 66.6,15.3 74.3,25.5 74.3,15.3 79.3,15.3 
			79.3,33.6 		"/>
		<polygon class="st4" points="86.8,19.4 86.8,22.3 95.5,22.3 95.5,26.5 86.8,26.5 86.8,29.4 96.6,29.4 96.6,33.6 81.4,33.6 
			81.4,15.3 96.4,15.3 96.4,19.4 		"/>
		<path class="st4" d="M10,15.1c-5.8,0-10,3.9-10,9.3c0,5.4,4.2,9.4,10,9.4c5.8,0,10-4,10-9.4C20,19.1,15.8,15.1,10,15.1 M16,25.4
			l-4.1,2.4l-4.1,2.4c-0.6,0.3-1.3-0.1-1.3-0.8v-4.7v-4.7c0-0.7,0.7-1.1,1.3-0.8l4.1,2.4l4.1,2.4C16.6,24.2,16.6,25.1,16,25.4"/>
		<path class="st4" d="M19.1,36.5c-0.8-0.1-1.5,0.6-1.5,1.4v-0.7c0-0.7-0.5-1.4-1.2-1.5c-0.8-0.1-1.5,0.6-1.5,1.4v-0.7
			c0-0.7-0.5-1.4-1.2-1.5c-0.8-0.1-1.5,0.6-1.5,1.4v-8.9c0-0.7-0.5-1.4-1.2-1.5c-0.8-0.1-1.5,0.6-1.5,1.4v10.2
			c-0.7-0.9-1.1-1.2-1.9-2C6.9,35,6,35,5.5,35.5c-0.6,0.6-0.4,1.6,0.1,2.1c0.9,0.8,1.3,1.2,2,2.2c0.8,1.1,1.4,3.3,1.9,4.7
			c0.4,1.3,1.7,2.3,3.1,2.3H17c1.8,0,3.3-1.5,3.3-3.4v-5.4C20.3,37.2,19.8,36.6,19.1,36.5"/>
	</g>
	<g class="st2">
		<polygon class="st4" points="9.1,11.4 9.1,4.5 6.4,10.4 4.8,10.4 2.1,4.5 2.1,11.4 0,11.4 0,1.1 2.6,1.1 5.6,7.4 8.6,1.1 
			11.2,1.1 11.2,11.4 		"/>
		<path class="st4" d="M20.5,7.5c0,2.4-1.7,4.1-4.2,4.1c-2.6,0-4.3-1.6-4.3-4.1c0-2.4,1.7-4,4.3-4C18.8,3.4,20.5,5.1,20.5,7.5
			 M14.3,7.5c0,1.3,0.8,2.2,2,2.2c1.2,0,2-0.9,2-2.2s-0.8-2.2-2-2.2C15.1,5.3,14.3,6.2,14.3,7.5"/>
		<path class="st4" d="M29.1,11.4h-2.3v-1.2c-0.6,0.8-1.4,1.3-2.5,1.3c-2.3,0-3.7-1.6-3.7-4.1c0-2.4,1.5-4,3.7-4
			c1.1,0,2,0.4,2.6,1.3V0.5h2.3V11.4z M26.9,7.5c0-1.3-0.8-2.2-2-2.2c-1.2,0-2,0.9-2,2.2c0,1.3,0.8,2.2,2,2.2
			C26.1,9.7,26.9,8.8,26.9,7.5"/>
		<path class="st4" d="M35.3,10.5c-0.5,0.7-1.4,1-2.5,1c-1.7,0-2.7-1-2.7-2.5c0-1.5,1.1-2.4,3-2.4h2.2V6.5c0-0.8-0.6-1.3-1.7-1.3
			c-0.7,0-1.5,0.2-2.4,0.7l-0.7-1.6c1.2-0.6,2.2-0.9,3.6-0.9c2.1,0,3.3,1.1,3.4,2.8l0,5.2h-2.2V10.5z M35.2,8.7V8h-1.8
			c-0.9,0-1.3,0.3-1.3,0.9c0,0.6,0.5,1,1.2,1C34.4,9.9,35.1,9.4,35.2,8.7"/>
		<rect x="38.8" y="0.5" class="st4" width="2.3" height="10.9"/>
		<path class="st4" d="M44.9,1.3c0,0.7-0.5,1.3-1.2,1.3c-0.7,0-1.2-0.5-1.2-1.3C42.5,0.5,43,0,43.7,0C44.4,0,44.9,0.5,44.9,1.3
			 M42.6,3.5h2.3v7.9h-2.3V3.5z"/>
		<path class="st4" d="M54.1,11.4h-2.3v-1.2c-0.6,0.8-1.4,1.3-2.5,1.3c-2.3,0-3.7-1.6-3.7-4.1c0-2.4,1.5-4,3.7-4
			c1.1,0,2,0.4,2.6,1.3V0.5h2.3C54.1,0.5,54.1,11.4,54.1,11.4z M51.9,7.5c0-1.3-0.8-2.2-2-2.2c-1.2,0-2,0.9-2,2.2
			c0,1.3,0.8,2.2,2,2.2C51,9.7,51.9,8.8,51.9,7.5"/>
		<path class="st4" d="M60.2,10.5c-0.5,0.7-1.4,1-2.5,1c-1.7,0-2.7-1-2.7-2.5c0-1.5,1.1-2.4,3-2.4h2.2V6.5c0-0.8-0.6-1.3-1.7-1.3
			c-0.7,0-1.5,0.2-2.4,0.7l-0.7-1.6c1.2-0.6,2.2-0.9,3.6-0.9c2.1,0,3.3,1.1,3.4,2.8l0,5.2h-2.2C60.2,11.4,60.2,10.5,60.2,10.5z
			 M60.2,8.7V8h-1.8c-0.9,0-1.3,0.3-1.3,0.9c0,0.6,0.5,1,1.2,1C59.3,9.9,60.1,9.4,60.2,8.7"/>
		<path class="st4" d="M71.5,11.4h-2.3v-1.2c-0.6,0.8-1.4,1.3-2.5,1.3c-2.3,0-3.7-1.6-3.7-4.1c0-2.4,1.5-4,3.7-4
			c1.1,0,2,0.4,2.6,1.3V0.5h2.3C71.5,0.5,71.5,11.4,71.5,11.4z M69.3,7.5c0-1.3-0.8-2.2-2-2.2c-1.2,0-2,0.9-2,2.2
			c0,1.3,0.8,2.2,2,2.2C68.5,9.7,69.3,8.8,69.3,7.5"/>
	</g>
</g>
</svg>
